<svg width="69" height="69" viewBox="0 0 69 69" fill="none" xmlns="http://www.w3.org/2000/svg">
<rect x="2" y="2" width="65" height="65" rx="32.5" stroke="#332823" stroke-width="4"/>
<path d="M23.4242 46.9847C21.3776 46.9847 19.621 46.4669 18.1543 45.4311C16.696 44.3871 15.5733 42.8832 14.7861 40.9194C14.0072 38.9473 13.6178 36.5734 13.6178 33.7976C13.6261 31.0218 14.0196 28.6603 14.7985 26.7131C15.5857 24.7576 16.7084 23.2661 18.1668 22.2386C19.6334 21.2112 21.3859 20.6974 23.4242 20.6974C25.4626 20.6974 27.2151 21.2112 28.6817 22.2386C30.1483 23.2661 31.2711 24.7576 32.0499 26.7131C32.8371 28.6686 33.2307 31.0301 33.2307 33.7976C33.2307 36.5817 32.8371 38.9598 32.0499 40.9318C31.2711 42.8956 30.1483 44.3954 28.6817 45.4311C27.2234 46.4669 25.4709 46.9847 23.4242 46.9847ZM23.4242 43.0945C25.0151 43.0945 26.2705 42.3114 27.1902 40.7454C28.1182 39.171 28.5823 36.8551 28.5823 33.7976C28.5823 31.7758 28.371 30.0772 27.9484 28.7017C27.5258 27.3262 26.9292 26.2905 26.1586 25.5945C25.388 24.8902 24.4765 24.538 23.4242 24.538C21.8416 24.538 20.5904 25.3252 19.6707 26.8995C18.7509 28.4656 18.2869 30.7649 18.2786 33.7976C18.2703 35.8277 18.4734 37.5346 18.8877 38.9183C19.3102 40.3021 19.9068 41.3461 20.6774 42.0504C21.448 42.7464 22.3636 43.0945 23.4242 43.0945ZM46.2097 46.848C44.5525 46.848 43.0693 46.5373 41.7601 45.9158C40.4509 45.2861 39.411 44.4244 38.6404 43.3306C37.8781 42.2369 37.4721 40.9857 37.4224 39.5771H41.8968C41.9797 40.6211 42.4312 41.4745 43.2516 42.1374C44.0719 42.792 45.0579 43.1193 46.2097 43.1193C47.1128 43.1193 47.9166 42.9122 48.6209 42.4979C49.3252 42.0836 49.8803 41.5077 50.2864 40.7702C50.6924 40.0328 50.8912 39.1918 50.8829 38.2472C50.8912 37.286 50.6882 36.4325 50.2739 35.6868C49.8596 34.9411 49.292 34.3569 48.5712 33.9343C47.8503 33.5034 47.0217 33.288 46.0854 33.288C45.323 33.2797 44.5732 33.4206 43.8357 33.7106C43.0983 34.0006 42.5141 34.3817 42.0832 34.854L37.9195 34.1705L39.2494 21.0455H54.015V24.8984H43.0651L42.3318 31.6474H42.481C42.9533 31.0922 43.6203 30.6323 44.482 30.2678C45.3438 29.8949 46.2884 29.7085 47.3158 29.7085C48.857 29.7085 50.2325 30.073 51.4422 30.8022C52.652 31.5231 53.6049 32.5174 54.3009 33.7852C54.9969 35.0529 55.3449 36.503 55.3449 38.1353C55.3449 39.8174 54.9555 41.3171 54.1766 42.6346C53.406 43.9438 52.333 44.9754 50.9575 45.7294C49.5903 46.4751 48.0077 46.848 46.2097 46.848Z" fill="#332823"/>
</svg>
