<svg width="36" height="40" viewBox="0 0 36 40" fill="none" xmlns="http://www.w3.org/2000/svg">
<path d="M18 1C27.2973 1 35 9.36017 35 19.8877C35 30.4152 27.2973 38.7754 18 38.7754C8.70267 38.7754 1.00002 30.4152 1 19.8877C1 9.36017 8.70265 1 18 1Z" stroke="white" stroke-width="2"/>
<path d="M12.8168 25.9532C11.8068 25.9489 10.9439 25.6826 10.228 25.1542C9.51207 24.6258 8.96449 23.8566 8.58523 22.8466C8.20597 21.8367 8.01634 20.6201 8.01634 19.1968C8.01634 17.7777 8.20597 16.5654 8.58523 15.5597C8.96875 14.554 9.51847 13.787 10.2344 13.2586C10.9545 12.7302 11.8153 12.466 12.8168 12.466C13.8182 12.466 14.6768 12.7323 15.3928 13.265C16.1087 13.7934 16.6563 14.5604 17.0355 15.5661C17.419 16.5675 17.6108 17.7777 17.6108 19.1968C17.6108 20.6243 17.4212 21.8431 17.0419 22.853C16.6626 23.8587 16.1151 24.6279 15.3991 25.1606C14.6832 25.689 13.8224 25.9532 12.8168 25.9532ZM12.8168 24.2465C13.7031 24.2465 14.3956 23.814 14.8942 22.9489C15.397 22.0839 15.6484 20.8331 15.6484 19.1968C15.6484 18.1101 15.5334 17.1918 15.3033 16.4418C15.0774 15.6875 14.7514 15.1165 14.3253 14.7287C13.9034 14.3367 13.4006 14.1407 12.8168 14.1407C11.9347 14.1407 11.2422 14.5753 10.7393 15.4446C10.2365 16.314 9.98295 17.5647 9.97869 19.1968C9.97869 20.2877 10.0916 21.2103 10.3175 21.9645C10.5476 22.7145 10.8736 23.2834 11.2955 23.6712C11.7173 24.0547 12.2244 24.2465 12.8168 24.2465ZM24.1994 25.9148C23.3983 25.9148 22.6781 25.7614 22.0389 25.4546C21.4039 25.1435 20.8968 24.7174 20.5176 24.1762C20.1383 23.635 19.9359 23.0171 19.9103 22.3225H21.8279C21.8748 22.885 22.1241 23.3473 22.5758 23.7096C23.0275 24.0718 23.5687 24.2529 24.1994 24.2529C24.7022 24.2529 25.1475 24.1378 25.5353 23.9077C25.9274 23.6733 26.2342 23.3516 26.4558 22.9425C26.6816 22.5334 26.7946 22.0668 26.7946 21.5427C26.7946 21.01 26.6795 20.5348 26.4494 20.1172C26.2193 19.6996 25.9018 19.3715 25.497 19.1329C25.0964 18.8942 24.6362 18.7728 24.1163 18.7685C23.72 18.7685 23.3216 18.8367 22.921 18.9731C22.5204 19.1094 22.1966 19.2884 21.9494 19.51L20.1404 19.2415L20.8755 12.6449H28.073V14.3388H22.5183L22.1028 18.0015H22.1795C22.4352 17.7543 22.774 17.5476 23.1958 17.3814C23.622 17.2152 24.0779 17.1321 24.5637 17.1321C25.3606 17.1321 26.0701 17.3218 26.6923 17.701C27.3187 18.0803 27.8109 18.5981 28.1689 19.2543C28.5311 19.9063 28.71 20.6563 28.7058 21.5043C28.71 22.3523 28.5183 23.1087 28.1305 23.7735C27.747 24.4383 27.2143 24.9624 26.5325 25.3459C25.8549 25.7252 25.0772 25.9148 24.1994 25.9148Z" fill="white"/>
</svg>
