<svg width="36" height="39" viewBox="0 0 36 39" fill="none" xmlns="http://www.w3.org/2000/svg">
<path d="M18 1C27.317 1 34.9998 9.18677 35 19.4521C35 29.7177 27.3172 37.9053 18 37.9053C8.68282 37.9053 1 29.7177 1 19.4521C1.00023 9.18677 8.68296 1 18 1Z" stroke="white" stroke-width="2"/>
<path d="M12.8168 25.7823C11.8068 25.778 10.9439 25.5117 10.228 24.9833C9.51207 24.4549 8.96449 23.6857 8.58523 22.6757C8.20597 21.6658 8.01634 20.4492 8.01634 19.0259C8.01634 17.6068 8.20597 16.3945 8.58523 15.3888C8.96875 14.3831 9.51847 13.6161 10.2344 13.0877C10.9545 12.5593 11.8153 12.2951 12.8168 12.2951C13.8182 12.2951 14.6768 12.5614 15.3928 13.0941C16.1087 13.6225 16.6563 14.3895 17.0355 15.3952C17.419 16.3966 17.6108 17.6068 17.6108 19.0259C17.6108 20.4534 17.4212 21.6722 17.0419 22.6821C16.6626 23.6878 16.1151 24.457 15.3991 24.9897C14.6832 25.5181 13.8224 25.7823 12.8168 25.7823ZM12.8168 24.0756C13.7031 24.0756 14.3956 23.6431 14.8942 22.778C15.397 21.913 15.6484 20.6622 15.6484 19.0259C15.6484 17.9392 15.5334 17.0209 15.3033 16.2709C15.0774 15.5166 14.7514 14.9456 14.3253 14.5578C13.9034 14.1658 13.4006 13.9698 12.8168 13.9698C11.9347 13.9698 11.2422 14.4044 10.7393 15.2737C10.2365 16.1431 9.98295 17.3938 9.97869 19.0259C9.97869 20.1168 10.0916 21.0394 10.3175 21.7936C10.5476 22.5436 10.8736 23.1125 11.2955 23.5003C11.7173 23.8838 12.2244 24.0756 12.8168 24.0756ZM19.6035 23.0081V21.4101L25.2605 12.474H26.5197V14.8263H25.7207L21.6745 21.2311V21.3334H29.4281V23.0081H19.6035ZM25.8102 25.5649V22.5223L25.823 21.7936V12.474H27.6958V25.5649H25.8102Z" fill="white"/>
</svg>
