<svg width="69" height="69" viewBox="0 0 69 69" fill="none" xmlns="http://www.w3.org/2000/svg">
<rect x="2" y="2" width="65" height="65" rx="32.5" stroke="#332823" stroke-width="4"/>
<path d="M22.8432 48.4847C20.7965 48.4847 19.0399 47.9669 17.5733 46.9311C16.115 45.8871 14.9922 44.3832 14.205 42.4194C13.4262 40.4473 13.0367 38.0734 13.0367 35.2976C13.045 32.5218 13.4386 30.1603 14.2175 28.2131C15.0046 26.2576 16.1274 24.7661 17.5857 23.7386C19.0523 22.7112 20.8048 22.1974 22.8432 22.1974C24.8815 22.1974 26.634 22.7112 28.1006 23.7386C29.5672 24.7661 30.69 26.2576 31.4689 28.2131C32.2561 30.1686 32.6496 32.5301 32.6496 35.2976C32.6496 38.0817 32.2561 40.4598 31.4689 42.4318C30.69 44.3956 29.5672 45.8954 28.1006 46.9311C26.6423 47.9669 24.8898 48.4847 22.8432 48.4847ZM22.8432 44.5945C24.4341 44.5945 25.6894 43.8114 26.6092 42.2454C27.5372 40.671 28.0012 38.3551 28.0012 35.2976C28.0012 33.2758 27.7899 31.5772 27.3673 30.2017C26.9447 28.8262 26.3481 27.7905 25.5775 27.0945C24.807 26.3902 23.8955 26.038 22.8432 26.038C21.2605 26.038 20.0094 26.8252 19.0896 28.3995C18.1699 29.9656 17.7059 32.2649 17.6976 35.2976C17.6893 37.3277 17.8923 39.0346 18.3066 40.4183C18.7292 41.8021 19.3258 42.8461 20.0964 43.5504C20.867 44.2464 21.7826 44.5945 22.8432 44.5945ZM36.3193 43.277V39.6104L47.1201 22.5455H50.1776V27.7656H48.3133L41.0423 39.2873V39.4862H56.1187V43.277H36.3193ZM48.4624 48V42.1584L48.5121 40.5178V22.5455H52.8623V48H48.4624Z" fill="#332823"/>
</svg>
