<svg width="94" height="98" viewBox="0 0 94 98" fill="none" xmlns="http://www.w3.org/2000/svg">
<path fill-rule="evenodd" clip-rule="evenodd" d="M70.13 4.14127C69.1965 2.58624 67.8213 1.37332 66.1958 0.671354C64.5702 -0.0306144 62.7752 -0.186708 61.0606 0.224806L48.8913 3.13922C47.6441 3.43808 46.3482 3.43808 45.1011 3.13922L32.9318 0.224806C31.2172 -0.186708 29.4222 -0.0306144 27.7966 0.671354C26.1711 1.37332 24.7958 2.58624 23.8624 4.14127L17.2296 15.1779C16.5527 16.307 15.639 17.2596 14.5561 17.9724L3.97062 24.8879C2.48173 25.8603 1.3201 27.2918 0.646975 28.9837C-0.0261527 30.6757 -0.17739 32.5441 0.214257 34.3298L3.00953 47.0318C3.29514 48.3298 3.29514 49.6784 3.00953 50.9765L0.214257 63.6715C-0.178912 65.4581 -0.0284359 67.3281 0.644765 69.0215C1.31797 70.7149 2.48045 72.1476 3.97062 73.1204L14.5561 80.0359C15.639 80.7416 16.5527 81.6942 17.2363 82.8233L23.8692 93.86C25.7778 97.0425 29.4191 98.6162 32.9318 97.7764L45.1011 94.862C46.3482 94.5631 47.6441 94.5631 48.8913 94.862L61.0673 97.7764C62.781 98.1863 64.5745 98.0295 66.1987 97.3276C67.8229 96.6257 69.197 95.4137 70.13 93.86L76.7628 82.8233C77.4397 81.6942 78.3533 80.7416 79.4363 80.0359L90.0285 73.1204C91.5188 72.1462 92.6807 70.7119 93.3528 69.0172C94.0248 67.3224 94.1735 65.4514 93.7781 63.6644L90.9896 50.9765C90.703 49.6762 90.703 48.325 90.9896 47.0247L93.7849 34.3298C94.1787 32.5438 94.0293 30.6743 93.3573 28.981C92.6853 27.2877 91.5242 25.8546 90.0353 24.8809L79.443 17.9653C78.3616 17.2584 77.4477 16.3054 76.7696 15.1779L70.13 4.14127ZM66.7256 33.2642C67.1442 32.4616 67.2479 31.521 67.0149 30.6403C66.7819 29.7596 66.2303 29.0075 65.4763 28.5422C64.7222 28.0769 63.8244 27.9346 62.9718 28.1454C62.1192 28.3562 61.3783 28.9036 60.9049 29.6723L43.206 60.9052L32.519 50.2355C32.2019 49.8961 31.8226 49.6268 31.4035 49.4435C30.9845 49.2603 30.5343 49.1669 30.0799 49.169C29.6255 49.171 29.1761 49.2685 28.7586 49.4555C28.3411 49.6426 27.964 49.9154 27.6498 50.2577C27.3356 50.6 27.0907 51.0047 26.9298 51.4478C26.7689 51.8909 26.6952 52.3632 26.7132 52.8366C26.7311 53.3101 26.8403 53.7748 27.0343 54.2033C27.2283 54.6318 27.503 55.0151 27.8421 55.3305L41.6087 69.0839C41.9771 69.4513 42.4204 69.7271 42.9054 69.8907C43.3905 70.0544 43.9047 70.1016 44.4097 70.029C44.9147 69.9564 45.3974 69.7658 45.8219 69.4714C46.2463 69.177 46.6015 68.7865 46.8608 68.3289L66.7256 33.2642Z" fill="#A1C7A1"/>
</svg>
