<?xml version="1.0" encoding="UTF-8"?>
<svg id="Layer_1" data-name="Layer 1" xmlns="http://www.w3.org/2000/svg" viewBox="0 0 47.66 48">
  <defs>
    <style>
      .cls-1 {
        fill: #534038;
      }
    </style>
  </defs>
  <g>
    <g>
      <path class="cls-1" d="M14.81,19.28s-.04,0-.06,0l-.06-.07-.15-.09-2.57-1.26.12-.36-.37-.55L3.02,12.76C7.15,5.19,15.01.5,23.66.5s15.97,4.39,20.2,11.5c-2.47,1.14-4.9,2.3-7.27,3.48-1.22.61-2.43,1.21-3.62,1.83l-.14-.04c-.27-.08-.48-.18-.55-.22-.46-.21-1.67-.63-2.87-.95-1.04-.28-2.12-.5-3.21-.66-.61-.22-1.32-.34-2.03-.34-.13,0-.26,0-.39.01-.19.01-.36.03-.53.06l-.13.02-1.59,1.23-1.02,1.13c-.37.12-.88.28-1.5.45-.56.16-.82.22-1.02.27-.22.05-.35.08-.66.19l-.95.31q-1.23.41-1.26.42c-.08.04-.21.1-.31.1Z"/>
      <path class="cls-1" d="M23.66,1c7.92,0,15.29,4.1,19.48,10.78-2.27,1.05-4.54,2.14-6.77,3.25-1.16.58-2.31,1.15-3.45,1.74-.21-.07-.37-.15-.47-.2-.51-.24-1.82-.67-2.92-.97-1.04-.28-2.1-.5-3.18-.65-.72-.24-1.46-.36-2.19-.36-.14,0-.28,0-.42.01-.2.01-.39.03-.58.06l-.26.04-.21.16-.58.45-.9.7-.07.06-.06.07-.13.15-.73.82c-.35.11-.81.25-1.36.41-.55.16-.81.22-1,.26-.23.05-.37.09-.73.21-2,.66-2.17.72-2.24.75l-.15-.07-2.18-1.07.06-.18-.27-.41-.08-.12-.08-.12-.15-.23-.25-.12-8.08-3.87C7.82,5.4,15.37,1,23.66,1M23.66,0C14.38,0,6.33,5.28,2.34,12.99c3.01,1.44,6.02,2.89,9.03,4.33.05.08.1.16.16.23-.06.18-.12.36-.18.55.99.49,1.98.97,2.97,1.46.05.06.14.13.26.18.08.03.16.04.23.04.23,0,.43-.1.52-.15,0,0,.72-.24,2.15-.72.58-.19.5-.12,1.66-.45.7-.2,1.27-.38,1.65-.5.35-.39.69-.78,1.04-1.17.49-.38.99-.76,1.48-1.14.16-.02.32-.04.49-.05.12,0,.24-.01.36-.01.77,0,1.43.15,1.96.33,1.24.18,2.3.41,3.15.64,1.16.31,2.36.72,2.76.91.05.02.3.15.65.26.11.03.23.07.34.1,1.25-.64,2.51-1.28,3.8-1.91,2.59-1.28,5.15-2.5,7.67-3.66.03-.01.05-.03.08-.04C40.45,4.93,32.63,0,23.66,0h0Z"/>
    </g>
    <g>
      <path class="cls-1" d="M47.66,24c0-.95-.06-1.89-.17-2.81.04,1.38.09,2.77.13,4.15.02-.44.04-.89.04-1.34Z"/>
      <path class="cls-1" d="M47.49,21.19c.04,1.38.09,2.77.13,4.15.02-.44.04-.89.04-1.34,0-.95-.06-1.89-.17-2.81h0Z"/>
    </g>
    <g>
      <path class="cls-1" d="M23.66,47.5c-11.04,0-20.45-7.57-22.89-18.19,1.16.82,2.56,1.41,4.13,1.73.12.09.31.2.55.2h.12c.14-.03.26-.08.37-.16l.1-.08,1.12-2.32c1.23.47,2.01.81,2.4,1.03.11.06.36.2.65.2.14,0,.28-.03.39-.1.06-.04.13-.09.2-.16.99.54,2,.82,3.01.82.07,0,.14,0,.21,0,.1.26.25.5.42.71.2.24.44.44.69.59.19.11.69.36,1.3.36.1,0,.19,0,.29-.02.03.24.09.5.21.76.1.21.23.42.4.61.12.14.29.33.57.5.44.25.85.26,1.01.26.18.41.49.65.63.75.25.19.53.33.83.4.16.04.29.05.46.05.1,0,.2,0,.34-.01.41-.02.74-.1.96-.17.11.18.25.35.4.5.16.15.6.51,1.27.61.12.02.23.03.34.03.4,0,.76-.11,1.14-.22.1-.03.18-.06.26-.09.33.21.68.37,1.06.48.27.08.53.15.84.15.09,0,.19,0,.29-.02.67-.1,1.38-.57,1.64-1.22.04.01.09.02.13.04.16.04.35.08.59.08.27,0,.53-.05.78-.15.41-.17.65-.43.8-.59.18-.19.5-.54.59-1.09.19,0,.38-.03.56-.07.87-.22,1.57-.94,1.75-1.78.05-.22.09-.55-.02-.96-.1-.34-.27-.57-.35-.66-.05-.07-.11-.13-.17-.19l3.19-2.66c.17.13.4.26.7.26.26-.02.45-.08.61-.19l2.19-.9,1.18,2.8.13.08c.25.17.49.25.72.25.11,0,.21-.02.31-.05.15-.05.28-.14.39-.27.08-.07.62-.42,3.46-1.84-1.72,11.44-11.55,19.96-23.23,19.96Z"/>
      <path class="cls-1" d="M40.45,27.23l.27.64.66,1.56.12.28.26.17c.33.22.67.33,1,.33.16,0,.32-.03.47-.08.15-.05.36-.16.55-.36.13-.09.62-.39,2.47-1.33-2.08,10.71-11.47,18.57-22.57,18.57-10.39,0-19.31-6.85-22.1-16.61.94.5,2,.88,3.14,1.12.18.12.44.23.75.23h.12s.07-.01.07-.01c.21-.03.42-.12.6-.25l.2-.15.11-.23.86-1.79c.95.37,1.59.65,1.92.83.22.12.52.26.88.26.23,0,.45-.06.64-.17,0,0,0,0,0,0,.94.46,1.89.71,2.84.72.1.19.22.37.36.53.3.36.61.58.82.71.21.12.75.4,1.43.43.04.15.1.31.17.46.15.32.34.57.47.72.14.16.34.4.7.6.29.17.6.27.95.31.22.35.49.56.63.67.39.3.77.43,1.03.49.19.04.36.06.57.06.1,0,.22,0,.36-.01.28-.01.52-.05.72-.09.08.1.17.2.27.29.19.18.73.62,1.53.74.14.02.28.03.41.03.48,0,.89-.12,1.29-.24.02,0,.04-.01.05-.02.31.17.64.31.98.41.29.08.6.17.97.17.12,0,.24,0,.36-.03.68-.1,1.41-.52,1.83-1.15.13.02.28.04.46.04.34,0,.66-.06.97-.19.51-.21.81-.54.98-.71.16-.17.45-.48.62-.97.1-.01.19-.03.29-.06,1.05-.27,1.9-1.14,2.12-2.16.03-.16.13-.63-.03-1.2-.08-.27-.19-.48-.3-.64l1.18-.98,1.36-1.14c.19.09.41.14.65.14h.08s.04,0,.04,0c.26-.02.51-.1.73-.24l1.69-.7M40.98,25.92c-.9.37-1.8.74-2.7,1.12-.05.04-.17.12-.32.13-.01,0-.03,0-.04,0-.31,0-.51-.27-.53-.29-.03-.06-.06-.12-.09-.18-1.36,1.13-2.71,2.26-4.07,3.39.16.08.38.23.57.48.07.09.19.25.26.49.09.32.04.6.01.71-.13.63-.69,1.22-1.39,1.4-.1.03-.26.06-.46.06-.14,0-.3-.02-.48-.06.02.1.04.26.01.45-.06.42-.31.69-.47.86-.14.15-.32.34-.62.47-.21.09-.41.11-.59.11-.21,0-.38-.04-.48-.06-.31-.07-.54-.21-.68-.3.02.07.04.18.03.3-.05.58-.69,1.09-1.31,1.18-.07.01-.14.02-.21.02-.24,0-.45-.06-.7-.13-.51-.15-.89-.39-1.13-.56-.11.05-.27.11-.47.17-.36.11-.67.2-1,.2-.09,0-.17,0-.26-.02-.57-.09-.94-.42-1-.48-.31-.29-.44-.61-.49-.78-.05.03-.13.07-.22.1-.08.03-.44.18-1.01.21-.12,0-.22.01-.31.01-.12,0-.22,0-.34-.04-.1-.02-.37-.1-.65-.31-.14-.11-.39-.3-.51-.65-.03-.1-.05-.19-.05-.25-.08.02-.2.04-.35.04,0,0,0,0-.01,0-.13,0-.44,0-.77-.19-.21-.12-.33-.26-.44-.39-.06-.07-.21-.26-.32-.49-.24-.51-.18-1.03-.14-1.25-.06.04-.16.09-.29.13-.18.06-.36.09-.52.09-.53,0-.97-.24-1.05-.29-.08-.05-.32-.2-.56-.48-.29-.35-.41-.72-.45-.92-.11.01-.21.02-.32.03-.08,0-.16,0-.24,0-1.31,0-2.44-.51-3.27-1.06,0,.13-.02.38-.18.47-.04.03-.09.04-.14.04-.16,0-.33-.1-.4-.14-.46-.25-1.39-.65-2.9-1.22-.42.87-.84,1.75-1.26,2.62-.03.02-.09.05-.16.06-.02,0-.03,0-.05,0-.18,0-.3-.14-.32-.16-2.81-.53-4.38-1.81-5.13-2.56,1.91,11.34,11.77,19.99,23.66,19.99s22.52-9.33,23.85-21.33c-3.02,1.5-4.29,2.19-4.45,2.38-.01.02-.07.09-.18.13-.04.02-.09.02-.14.02-.15,0-.3-.07-.45-.17-.44-1.04-.87-2.08-1.31-3.12h0Z"/>
    </g>
  </g>
  <path class="cls-1" d="M22.38,27.64c-1.61,1.39-3.32,2.65-5.13,3.77,1.61-1.39,3.32-2.65,5.13-3.77h0Z"/>
  <path class="cls-1" d="M24.93,29.21c-1.78,1.63-3.66,3.12-5.65,4.49,1.78-1.63,3.66-3.12,5.65-4.49h0Z"/>
  <path class="cls-1" d="M23.95,32.71c-.39.74-.92,1.38-1.57,1.9.39-.74.92-1.38,1.57-1.9h0Z"/>
  <path class="cls-1" d="M20.79,17.97l5.01.19c1.22.14,2.62.01,3.66.79.83.95,1.37,2.09,2.19,3.07.73.81.48,1.77-.57,2.11-1.71.46-3.3-1.14-4.22-2.4,0,0,.16.03.16.03-4.21,2.72-8.4,5.49-12.64,8.16,4.14-2.83,8.34-5.57,12.52-8.35.12-.08.08-.08.16.03.9,1.32,3.6,3.65,4.8,1.59.11-.36-.11-.73-.36-1.05-.78-.95-1.36-2.14-2.13-3.06-1.01-.76-2.37-.64-3.57-.79,0,0-5-.32-5-.32h0Z"/>
  <path class="cls-1" d="M37.29,26.7c-1.45-2.96-2.57-6.04-4.27-8.86,1.99,2.65,3.14,5.78,4.27,8.86h0Z"/>
  <path class="cls-1" d="M40.98,25.92c-1.1-3.49-2.93-6.65-4.06-10.12,0,0,1.09,2.5,1.09,2.5,1.34,2.38,2.32,4.97,2.97,7.62h0Z"/>
  <path class="cls-1" d="M10.54,28.9c1.03-3.16,1.76-6.62,4.03-9.16-2,2.74-2.67,6.1-4.03,9.16h0Z"/>
  <path class="cls-1" d="M6.91,28.04c.83-2.64,1.77-5.22,2.79-7.79.33-.86.75-1.75,1.64-2.15-.84.48-1.17,1.36-1.47,2.22,0,0-.94,2.59-.94,2.59-.65,1.72-1.3,3.44-2.03,5.13h0Z"/>
  <path class="cls-1" d="M25.19,31.72c1.35.87,2.6,1.86,3.73,2.99-1.35-.87-2.6-1.87-3.73-2.99h0Z"/>
  <path class="cls-1" d="M27.06,29.95c1.67.95,3.25,2.04,4.73,3.27-1.67-.95-3.25-2.04-4.73-3.27h0Z"/>
  <path class="cls-1" d="M28.92,27.99c1.56.59,3.06,1.33,4.47,2.23-1.56-.59-3.06-1.33-4.47-2.23h0Z"/>
  <path class="cls-1" d="M23.66,33.91c.77.4,1.45.94,2.01,1.61-.77-.4-1.44-.94-2.01-1.61h0Z"/>
</svg>