<?xml version="1.0" encoding="UTF-8"?>
<svg id="Layer_1" data-name="Layer 1" xmlns="http://www.w3.org/2000/svg" viewBox="0 0 46 45.38">
  <defs>
    <style>
      .cls-1 {
        fill: #534038;
      }
    </style>
  </defs>
  <path class="cls-1" d="M23,0C10.32,0,0,10.32,0,23c0,10.65,7.27,19.62,17.11,22.23-.05-.55-.16-1.17-.37-1.83-.37-1.18-.69-1.36-1.49-3.13-.58-1.29-1.06-2.35-1.27-3.8-.15-1.07-.09-1.88,0-3.08.05-.69.13-1.4.58-3.82.94-5.07.87-4.7,1.02-5.71.13-.84.3-1.67.44-2.51.18-1.05.22-1.26.35-1.62.07-.2.78-2.09,1.8-2.07.16,0,.43.06.76.38.29-.9.5-1.61.63-2.09.13-.47.29-1.07.76-1.68.22-.29.4-.43.61-.49.52-.15,1.01.2,1.11.28.11-.29.21-.58.32-.87.02-.06.22-.73.89-.96.05-.02.64-.21,1.11.11.18.12.35.32.59,1.21.11.41.25,1,.33,1.72.1-.12.5-.57,1.03-.55.73.02,1.23.86,1.28,1.17.08.53.18,1.22.27,2.03.1.95.24,2.47.27,4.37.02,1.5-.06,2.13-.11,4.22-.04,1.3-.08,3.16-.12,5.45.7-1.23,1.44-2.1,1.97-2.67,1.09-1.15,1.89-2,3.13-2.13.9-.1,1.65.24,2.07.47.57-.06,1.21-.08,1.29.15.07.17-.25.35-.9.98-.37.36-.86,1.03-1.99,2.25-.4.43-.5.63-1.42,2.62-1.35,2.94-2.03,4.4-2.96,5.82-1.03,1.56-1.36,1.64-1.55,2.47-.28,1.22.15,2.44.74,3.46,10.14-2.4,17.72-11.52,17.72-22.38C46,10.32,35.68,0,23,0Z"/>
  <path class="cls-1" d="M19.01,17.48c-.21,2.76-.58,5.5-1.13,8.22.21-2.76.59-5.5,1.13-8.22h0Z"/>
  <path class="cls-1" d="M22.08,13.55c-.27,5.42-.69,10.83-1.27,16.22.27-5.42.69-10.83,1.27-16.22h0Z"/>
  <path class="cls-1" d="M25.37,13.67c-.03,5-.23,9.99-.6,14.97.03-5,.23-9.99.6-14.97h0Z"/>
  <path class="cls-1" d="M28.22,31.13c-.3,1.21-.95,2.33-1.8,3.24.7-1.03,1.32-2.08,1.8-3.24h0Z"/>
  <path class="cls-1" d="M33.73,30.72c-1.58-1.04.41-2.67,1.47-3.18-.8.82-2.64,1.97-1.47,3.18h0Z"/>
</svg>