<?xml version="1.0" encoding="UTF-8"?>
<svg id="Layer_2" data-name="Layer 2" xmlns="http://www.w3.org/2000/svg" viewBox="0 0 49 48.5">
  <defs>
    <style>
      .cls-1 {
        fill: #534038;
      }
    </style>
  </defs>
  <g>
    <g>
      <path class="cls-1" d="M24.5,48c-1.17,0-2.36-.09-3.55-.27.86-1.35,1.55-2.34,1.95-2.91.1-.14.11-.15.25-.34.17-.23.54-.71,1.46-1.95.35-.47.79-1.06,1.54-1.71.03-.03.06-.05.09-.08.08.09.17.2.26.31.79.98,1.22,1.72,2.34,3.71,0,0,1.21,2.16,1.41,2.52-1.89.48-3.82.72-5.75.72Z"/>
      <path class="cls-1" d="M26.18,41.46c.72.91,1.15,1.65,2.22,3.55l.74,1.33c.12.22.24.42.34.61-1.64.37-3.32.55-4.99.55-.89,0-1.8-.05-2.7-.16.66-1.01,1.19-1.77,1.51-2.23.09-.13.1-.14.24-.32.17-.23.54-.71,1.47-1.96.29-.39.64-.86,1.17-1.36M26.3,40.05c-.12.09-.29.22-.48.39-.79.68-1.26,1.32-1.61,1.79-1.71,2.3-1.5,1.99-1.72,2.3-.49.7-1.33,1.9-2.36,3.56,1.42.26,2.88.4,4.37.4,2.26,0,4.44-.32,6.51-.9-.44-.76-.95-1.7-1.73-3.08-1.13-2.01-1.57-2.78-2.39-3.78-.24-.29-.44-.53-.59-.69h0Z"/>
    </g>
    <g>
      <path class="cls-1" d="M13.85,45.45C5.91,41.41,1,33.42,1,24.5,1,11.54,11.54,1,24.5,1s23.5,10.54,23.5,23.5c0,8.22-4.36,15.9-11.4,20.14-.36-.44-.69-.85-.97-1.19-.27-.33-.54-.67-.81-1-.51-.63-1.03-1.29-1.59-1.91-.44-.48-.86-1.03-1.69-2.11-.13-.17-.33-.43-.52-.8-.22-.44-.33-.8-.43-1.19-.23-.9-.35-1.35-.44-1.97-.17-1.1-.77-2.92-1.96-6.56-.05-.15-1.11-3.43-1.11-3.43-.12-.34-.22-.59-.3-.8-.19-.48-.28-.72-.31-1.12,0-.06,0-.08,0-.14,0-.1.02-.29.04-.72.02-.59.01-.78,0-1.04,0-.2-.02-.43-.01-.95,0-.27,0-.55-.02-.82l1.64-.48c1.49-.43,2.82-1.19,3.96-2.25l1.55-1.44-2.03.59c-1.5.44-2.83,1.19-3.96,2.25l-1.19,1.11c-.06-.34-.18-.64-.44-.8,0-.06.01-.12,0-.18,0-.1-.03-.21-.05-.34l1.01-.82c1.2-.97,2.14-2.19,2.78-3.61l.87-1.93-1.64,1.33c-1.21.98-2.14,2.2-2.78,3.61l-.39.88c-.17-.41-.44-.76-.85-.78h0c-.18,0-.32.06-.45.15l.24-1.16c.31-1.52.27-3.05-.13-4.55l-.55-2.04-.43,2.07c-.31,1.53-.27,3.06.13,4.55l.4,1.47s-.03.03-.04.05c-.21.25-.31.48-.38.63,0,0,0,.02-.01.03-.03,0-.07,0-.11,0-.06,0-.13,0-.21.02-.03,0-.08.01-.14.03l-.49-1.21c-.58-1.44-1.46-2.69-2.63-3.72l-1.58-1.4.79,1.96c.58,1.45,1.47,2.7,2.63,3.72l.91.8c-.15.08-.31.19-.44.35-.15.18-.21.34-.26.53l-.67-.63c-1.13-1.06-2.46-1.82-3.96-2.25l-2.03-.6,1.55,1.44c1.14,1.06,2.47,1.82,3.96,2.25l1.04.3c-.04.2-.11.48-.22.83-.12.39-.21.79-.26,1.19-.1.81-.04,1.37.05,2.08.04.37.1.79.13,1.32.03.45.06,1.13.04,1.89-.04,1.03-.16,1.94-.35,2.66-.08.29-.13.41-.18.54-.06.14-.12.29-.23.65-.14.47-.5,1.72-.45,3.3.02.51.07.79.12,1.07.05.29.1.56.11,1.13,0,.72,0,1.15-.14,1.69-.05.18-.21.71-1.3,2.12-.63.8-1.16,1.38-1.31,1.53-.02.03-2.08,2.18-4.25,4.62Z"/>
      <path class="cls-1" d="M24.5,1.5c12.68,0,23,10.32,23,23,0,7.9-4.11,15.29-10.79,19.48-.26-.31-.49-.6-.7-.85-.27-.33-.54-.66-.81-1-.51-.64-1.04-1.3-1.61-1.93-.43-.47-.85-1.02-1.69-2.1-.1-.13-.28-.36-.45-.7-.2-.39-.3-.72-.39-1.09-.23-.91-.34-1.33-.43-1.92-.18-1.14-.78-2.99-1.99-6.69-.06-.18-.36-1.1-.74-2.28-.3-.93-.34-1.07-.37-1.14-.11-.32-.21-.57-.3-.79-.18-.46-.25-.65-.28-.98v-.05c.01-.11.03-.29.04-.74.02-.6.01-.82,0-1.07,0-.19-.02-.42-.01-.98,0-.13,0-.26,0-.4l1.26-.36c1.56-.45,2.96-1.25,4.16-2.36l3.1-2.88-4.06,1.19c-1.57.46-2.97,1.26-4.16,2.36l-.65.6c-.04-.06-.08-.11-.13-.16,0-.03,0-.05,0-.08l.78-.64c1.26-1.02,2.24-2.3,2.92-3.8l1.73-3.86-3.28,2.67c-1.27,1.03-2.25,2.31-2.92,3.8l-.04.08c-.16-.13-.35-.22-.56-.26l.09-.43c.33-1.59.28-3.2-.14-4.78l-1.09-4.08-.85,4.14c-.33,1.6-.28,3.21.14,4.78l.33,1.23s-.06.09-.09.13l-.27-.66c-.6-1.51-1.53-2.82-2.76-3.91l-3.17-2.8,1.58,3.92c.61,1.52,1.54,2.84,2.76,3.91l.46.4s-.03.03-.04.05c0,.01-.02.02-.03.03l-.18-.17c-1.19-1.11-2.59-1.91-4.16-2.37l-4.06-1.19,3.09,2.88c1.2,1.12,2.6,1.91,4.16,2.37l.58.17c-.03.11-.07.23-.1.34-.13.41-.22.84-.27,1.26-.11.87-.04,1.49.05,2.2.04.36.09.77.13,1.29.04.62.06,1.26.03,1.84-.03.97-.15,1.88-.34,2.54-.07.27-.11.35-.16.48-.06.14-.13.32-.24.7-.14.49-.53,1.8-.47,3.46.02.54.08.86.13,1.14.05.27.09.51.1,1.04,0,.7,0,1.08-.12,1.54-.15.51-.74,1.34-1.22,1.95-.66.85-1.22,1.43-1.26,1.48-.01.01-1.93,2.01-4.02,4.36C6.17,40.82,1.5,33.1,1.5,24.5,1.5,11.82,11.82,1.5,24.5,1.5M24.5.5C11.25.5.5,11.25.5,24.5c0,9.48,5.49,17.67,13.47,21.57,2.28-2.58,4.49-4.89,4.49-4.89.04-.04.63-.66,1.35-1.57,1.12-1.43,1.32-2.03,1.39-2.29.17-.6.17-1.09.16-1.83,0-1.15-.19-1.19-.23-2.21-.05-1.47.28-2.64.43-3.14.19-.67.23-.55.41-1.19.08-.28.32-1.2.37-2.77,0-.28.03-1-.04-1.95-.11-1.56-.34-2.15-.19-3.3.06-.48.16-.86.24-1.1.12-.37.19-.67.24-.88.11-.5.1-.65.26-.83.24-.28.61-.35.65-.35.05,0,.09-.01.13-.01.1,0,.15.02.22.02.03,0,.06,0,.1-.02.26-.1.21-.41.56-.84.19-.24.3-.36.41-.36,0,0,0,0,0,0,.3.01.54.69.58,1.19,0,.09-.08.26,0,.4.06.09.15.13.19.15.31.14.29.91.29,1.42,0,1.17.05.93.01,1.97-.03.82-.05.72-.04.92.05.66.26.98.63,2.02,0,.02-.02-.06.36,1.11.4,1.24.71,2.18.75,2.3,1.19,3.63,1.78,5.45,1.95,6.51.1.64.22,1.1.45,2.02.1.38.21.8.47,1.29.21.41.43.69.55.85.86,1.11,1.28,1.66,1.74,2.16.84.93,1.59,1.93,2.39,2.89.35.42.77.94,1.24,1.52,7.18-4.15,12.01-11.9,12.01-20.79C48.5,11.25,37.75.5,24.5.5h0ZM24.24,14.95c-.38-1.43-.42-2.88-.13-4.32.38,1.43.43,2.88.13,4.32h0ZM26.64,16.17c.6-1.35,1.49-2.5,2.63-3.43-.61,1.35-1.49,2.5-2.63,3.43h0ZM22.33,16.27c-1.11-.98-1.94-2.16-2.5-3.53,1.11.98,1.95,2.16,2.5,3.53h0ZM27.96,17.95c1.08-1.01,2.34-1.72,3.76-2.14-1.08,1.01-2.34,1.72-3.76,2.14h0ZM21.19,18.07c-1.42-.41-2.68-1.13-3.76-2.14,1.42.42,2.68,1.13,3.76,2.14h0Z"/>
    </g>
  </g>
  <path class="cls-1" d="M26.08,39.75c-.95-1.7-1.92-3.66-1.58-5.67.23-.95.21-1.97.01-2.91-.09-.5-.39-.86-.64-1.3-.48-.89-.7-1.89-.84-2.89-.08-.49-.03-1.1.45-1.46.27-.19.62-.04.8.13.57.51.96,1.2,1.21,1.91.67,1.86,1.12,3.84,2.35,5.43-1.32-1.53-1.81-3.53-2.51-5.37-.24-.74-1.55-3.04-2.07-1.36-.06,1.18.32,2.44.82,3.51.24.42.56.86.64,1.36.19.99.19,2.02-.05,3-.34,1.94.57,3.92,1.42,5.63h0Z"/>
  <path class="cls-1" d="M23.43,25.79c.05.64.19,1.25.47,1.8l-.14-.06c.49-.13.99-.25,1.51-.3-.47.22-.95.38-1.44.53l-.09.03-.05-.09c-.31-.58-.43-1.28-.26-1.91Z"/>
  <path class="cls-1" d="M24.7,25.79c-.18-.67-.34-1.34-.49-2.02-.09-.34-.13-.68-.2-1.01-.07-.32-.19-.65-.46-.76-.28-.14-.57-.03-.66.29-.11.3-.15.65-.22.99-.11.68-.23,1.36-.37,2.04.05-.69.11-1.38.18-2.07.04-.34.08-.69.19-1.04.06-.17.17-.37.38-.46.2-.09.42-.06.6.02.39.19.51.61.57.95l.16,1.03c.11.68.21,1.36.3,2.05Z"/>
  <path class="cls-1" d="M26,22.89c-.28-1.24-.54-2.49-.91-3.69-.1-.3-.21-.6-.35-.87-.07-.14-.16-.26-.26-.34-.09-.07-.2-.02-.32.06-.22.16-.31.47-.35.76-.04.3-.03.62,0,.93.02.63.09,1.26.19,1.88l.09.46.05.23.03.11.02.05s.08.04-.08,0c-.04-.01-.08.08-.07.07h0s0-.03,0-.03v-.05s-.02-.12-.02-.12l-.03-.23-.08-.47c-.11-.62-.28-1.23-.42-1.85-.09-.29-.1-.67-.33-.84-.28-.1-.62.12-.73.42.09-.29.41-.57.75-.47.3.21.31.57.43.86.16.61.35,1.22.47,1.85l.09.47.04.24.02.12v.06s0,.04,0,.04v.02s-.03.1-.08.1c-.02,0-.08-.01-.1-.04-.03-.04-.01-.02-.02-.03v-.03s-.03-.06-.03-.06l-.03-.12-.06-.23-.1-.47c-.12-.63-.2-1.27-.23-1.91-.01-.32-.02-.64.03-.97.05-.32.15-.69.46-.9.07-.05.15-.09.25-.12.1-.03.23,0,.31.06.15.12.24.27.31.41.15.29.25.6.34.9.37,1.23.57,2.48.75,3.74Z"/>
  <path class="cls-1" d="M25.04,16.56c-.02.44-.02.85.1,1.25.04.2.11.41.2.57.04.04.01.04,0,.05.02,0,.04-.06.06-.11.04-.1.07-.2.1-.31.01.11.02.22.02.33,0,.06,0,.11-.06.19-.02.05-.13.07-.17.04-.05-.02-.07-.05-.09-.07-.16-.2-.22-.41-.29-.62-.1-.44-.08-.92.14-1.31Z"/>
  <path class="cls-1" d="M25.9,18.31c.03.35-.03.69-.08,1.03-.04.17-.08.32-.06.45.02.14.11.28.24.39-.17-.03-.36-.14-.43-.34-.07-.2-.02-.4,0-.56.08-.33.15-.66.32-.98Z"/>
</svg>