<?xml version="1.0" encoding="UTF-8"?>
<svg id="Layer_1" data-name="Layer 1" xmlns="http://www.w3.org/2000/svg" viewBox="0 0 49 50.2">
  <defs>
    <style>
      .cls-1 {
        fill: #534038;
      }
    </style>
  </defs>
  <path class="cls-1" d="M17.99,21.55c1.84-2.05,4.56-2.86,7.22-3.2-2.58.67-5.16,1.42-7.22,3.2h0Z"/>
  <path class="cls-1" d="M28.6,18.3c1.99,3.58-6.44,3.14-7.02,6.03-.02.07-.01.05-.07.05-1.15-.02-2.26.39-3.21,1.02-.97.61-1.82,1.41-2.4,2.4-1.22,1.94-2.38,4.02-2.21,6.38,0,0-.22-.04-.22-.04,1.49-4.09,4.32-7.8,9.14-6.12,1.94.74,3.62,2.1,4.66,3.91.16.31.25.69.13,1.05-.25.71-1.18,1-1.82.67-1.43-.81-2.81-2.11-4.54-2.13-2.28.13-3.11,2.95-1.77,4.62-1.39-1.69-.57-4.56,1.76-4.73,1.41-.03,2.61.85,3.75,1.56.55.37,1.14.87,1.79.58,2.57-1.18-2.65-5.07-4.04-5.35-4.69-1.61-7.38,2.08-8.86,6.01,0,0-.2.54-.2.54-.3-2.59.87-4.97,2.26-7.06.6-1.01,1.48-1.83,2.47-2.44.85-.58,2.47-1.2,3.23-.98.13-.43.37-.83.71-1.12,1.46-1.49,8.28-1.91,6.44-4.87h0Z"/>
  <path class="cls-1" d="M21.38,24.34c2.51.72,4.95,2.02,6.72,3.97.75.75,1.2,1.68-.06,2.19-.68.23-1.44.16-2.07-.14.84.35,2.68.28,2.67-.88-1.53-2.56-4.56-4.02-7.26-5.14h0Z"/>
  <g>
    <path class="cls-1" d="M26.46,21.35c-.26.63-.54,1.48-.69,2.51-.16,1.04-.14,1.95-.07,2.64"/>
    <path class="cls-1" d="M26.46,21.35c-.61,1.64-.87,3.4-.76,5.15-.23-1.74.04-3.55.76-5.15,0,0-.72,1.6,0,0Z"/>
  </g>
  <g>
    <path class="cls-1" d="M19.45,47.45C8.69,45.11,1,35.65,1,24.5,1,11.54,11.54,1,24.5,1s23.5,10.54,23.5,23.5c0,10.18-6.72,19.33-16.39,22.4-.47-.92-.53-1.03-.53-1.04-.25-.49-1.07-2.21-1.31-3.63-.04-.26-.08-.6.07-.91.05-.1.1-.16.21-.3.25-.3.44-.57.63-.83.1-.15.21-.29.32-.43.72-.94.78-2.42.81-3.39.03-.66.01-1.55-.3-3.27-.22-1.22-.4-1.84-.56-2.39-.12-.4-.22-.74-.31-1.25-.63-3.51.43-7.97.44-8.01.04-.17.38-1.58-.1-2.6l.29-.05c1.14-.21,2.1-.76,2.87-1.63l.96-1.09-1.42.27c-1.14.21-2.11.76-2.87,1.63l-.25.28c-.07-.06-.14-.12-.24-.18l.53-.51c.83-.8,1.33-1.79,1.49-2.94l.2-1.44-1.04,1.01c-.69.67-1.16,1.46-1.38,2.37.05-.92-.16-1.8-.61-2.64l-.69-1.27-.24,1.43c-.19,1.15-.01,2.24.54,3.26l.29.52c-.16,0-.32.02-.47.07l-.13.04s-.09-.05-.1-.05c-.3-.18-.63-.25-1.12-.25-.41,0-.93.05-1.58.14.17-.41.33-.74.45-1,.22-.47.44-.95.52-1.64.08-.7-.04-1.2-.36-1.48-.2-.18-.47-.27-.79-.27-.11,0-.19.01-.25.02-1.54.19-3.54,2.6-3.77,2.87-2,2.45-2.82,3.46-3.04,3.76l-.13.18c-1.2,1.69-1.87,2.62-2.55,3.94-.65,1.25-2.37,4.57-2.53,9.07-.04,1.22-.09,2.47.3,4.07.45,1.82,2.96,5.89,3.24,6.26,1.11,1.95,1.84,3.14,2.33,3.88Z"/>
    <path class="cls-1" d="M24.5,1.5c12.68,0,23,10.32,23,23,0,9.82-6.39,18.67-15.64,21.79-.26-.51-.32-.63-.33-.65h0c-.24-.48-1.04-2.14-1.27-3.49-.04-.21-.06-.42.03-.61.02-.05.05-.08.16-.21l.04-.05c.21-.25.4-.52.6-.79.1-.14.21-.29.31-.43.81-1.07.87-2.64.92-3.68.03-.68.01-1.6-.31-3.37-.22-1.24-.42-1.91-.58-2.44-.12-.4-.21-.71-.3-1.19-.61-3.4.43-7.76.44-7.8.07-.26.31-1.33.07-2.35,1.13-.26,2.1-.85,2.88-1.74l1.92-2.18-2.85.53c-.41.08-.79.19-1.16.34.21-.47.35-.97.42-1.5l.4-2.87-2.08,2.02c-.29.28-.54.58-.76.9-.11-.36-.26-.71-.44-1.05l-1.38-2.55-.48,2.86c-.19,1.15-.05,2.25.44,3.28-.25-.08-.56-.12-.95-.12-.23,0-.48.01-.77.04.03-.06.06-.13.09-.19l.02-.05c.2-.43.45-.98.54-1.75.1-.88-.07-1.52-.52-1.91-.3-.26-.68-.39-1.12-.39-.13,0-.24.01-.31.02-1.65.21-3.55,2.39-4.09,3.05-1.94,2.38-2.83,3.46-3.06,3.79l-.12.16c-1.22,1.72-1.9,2.66-2.59,4.01-.66,1.28-2.42,4.67-2.58,9.28-.05,1.25-.09,2.55.32,4.2.47,1.89,2.88,5.77,3.27,6.37.7,1.22,1.25,2.15,1.69,2.87C8.46,43.96,1.5,34.99,1.5,24.5,1.5,11.82,11.82,1.5,24.5,1.5M24.5.5C11.25.5.5,11.25.5,24.5c0,11.93,8.7,21.82,20.1,23.68-.25-.09-2.42-3.76-3.07-4.9-.23-.32-2.72-4.36-3.15-6.09-.38-1.52-.34-2.7-.29-3.93.16-4.3,1.75-7.47,2.47-8.85.69-1.33,1.34-2.23,2.64-4.05.21-.3,1.15-1.44,3.02-3.73,0,0,2.06-2.52,3.44-2.69.04,0,.11-.01.19-.01.14,0,.32.03.46.15.06.05.28.26.19,1.04-.07.63-.29,1.07-.48,1.49-.2.42-.48,1.05-.8,1.85,1.12-.2,1.88-.28,2.39-.28.42,0,.66.05.8.13.01,0,.04.03.09.05,0,0,.12.06.22.09.04.01.08.02.12.02.1,0,.2-.03.27-.05.12-.03.24-.05.35-.05.21,0,.41.05.53.1.25.11.38.31.45.41.59.87.18,2.47.18,2.47-.05.2-1.09,4.64-.45,8.22.22,1.23.5,1.54.87,3.64.3,1.66.32,2.52.29,3.16-.04.92-.09,2.29-.71,3.11-.3.39-.57.81-.89,1.19-.15.18-.24.28-.33.46-.22.46-.16.93-.12,1.21.27,1.57,1.18,3.43,1.36,3.77,0,0,.06.11.72,1.41,9.91-2.95,17.15-12.13,17.15-23C48.5,11.25,37.75.5,24.5.5h0ZM29.57,17.09c-.5-.92-.66-1.9-.49-2.93.5.92.66,1.9.49,2.93h0ZM30.52,17.21c.14-1.03.6-1.93,1.35-2.65-.14,1.03-.59,1.93-1.35,2.65h0ZM31.19,18.3c.69-.79,1.56-1.28,2.58-1.47-.69.78-1.56,1.28-2.58,1.47h0Z"/>
  </g>
</svg>