<svg width="69" height="66" viewBox="0 0 69 66" fill="none" xmlns="http://www.w3.org/2000/svg">
<rect x="2" y="2" width="65" height="61.0943" rx="30.5472" stroke="#332823" stroke-width="4"/>
<path d="M27.7704 45.3969C25.7171 45.3969 23.8971 44.8485 22.3104 43.7519C20.7238 42.6319 19.4754 41.0919 18.5654 39.1319C17.6788 37.1485 17.2354 34.8852 17.2354 32.3419C17.2354 29.7985 17.6788 27.5702 18.5654 25.6569C19.4521 23.7202 20.6888 22.2152 22.2754 21.1419C23.8854 20.0452 25.7171 19.4969 27.7704 19.4969C29.8471 19.4969 31.6788 20.0452 33.2654 21.1419C34.8521 22.2152 36.0888 23.7202 36.9754 25.6569C37.8854 27.5702 38.3404 29.7985 38.3404 32.3419C38.3404 34.9085 37.8854 37.1719 36.9754 39.1319C36.0888 41.0919 34.8521 42.6319 33.2654 43.7519C31.6788 44.8485 29.8471 45.3969 27.7704 45.3969ZM27.7704 41.5819C29.0538 41.5819 30.1154 41.1735 30.9554 40.3569C31.7954 39.5402 32.4254 38.4319 32.8454 37.0319C33.2888 35.6319 33.5104 34.0569 33.5104 32.3069C33.5104 30.5569 33.3004 29.0052 32.8804 27.6519C32.4604 26.2985 31.8188 25.2369 30.9554 24.4669C30.1154 23.6969 29.0538 23.3119 27.7704 23.3119C26.5104 23.3119 25.4488 23.7085 24.5854 24.5019C23.7454 25.2719 23.1154 26.3335 22.6954 27.6869C22.2754 29.0402 22.0654 30.5802 22.0654 32.3069C22.0654 34.0802 22.2754 35.6669 22.6954 37.0669C23.1154 38.4669 23.7571 39.5752 24.6204 40.3919C25.4838 41.1852 26.5338 41.5819 27.7704 41.5819ZM46.4544 45.0469V23.8719L47.1194 24.2919C46.7927 24.9919 46.2794 25.6569 45.5794 26.2869C44.8794 26.8935 44.0627 27.4185 43.1294 27.8619C42.1961 28.3052 41.1927 28.6202 40.1194 28.8069V24.4319C41.0527 24.2919 41.9977 23.9885 42.9544 23.5219C43.9111 23.0552 44.7744 22.5069 45.5444 21.8769C46.3144 21.2235 46.8627 20.5469 47.1894 19.8469H50.8994V45.0469H46.4544Z" fill="#332823"/>
</svg>
