<svg width="69" height="69" viewBox="0 0 69 69" fill="none" xmlns="http://www.w3.org/2000/svg">
<rect x="2" y="2" width="65" height="65" rx="32.5" stroke="#332823" stroke-width="4"/>
<path d="M23.1508 47.9847C21.1042 47.9847 19.3475 47.4669 17.8809 46.4311C16.4226 45.3871 15.2998 43.8832 14.5127 41.9194C13.7338 39.9473 13.3443 37.5734 13.3443 34.7976C13.3526 32.0218 13.7462 29.6603 14.5251 27.7131C15.3122 25.7576 16.435 24.2661 17.8933 23.2386C19.36 22.2112 21.1124 21.6974 23.1508 21.6974C25.1891 21.6974 26.9416 22.2112 28.4082 23.2386C29.8749 24.2661 30.9976 25.7576 31.7765 27.7131C32.5637 29.6686 32.9573 32.0301 32.9573 34.7976C32.9573 37.5817 32.5637 39.9598 31.7765 41.9318C30.9976 43.8956 29.8749 45.3954 28.4082 46.4311C26.9499 47.4669 25.1974 47.9847 23.1508 47.9847ZM23.1508 44.0945C24.7417 44.0945 25.997 43.3114 26.9168 41.7454C27.8448 40.171 28.3088 37.8551 28.3088 34.7976C28.3088 32.7758 28.0975 31.0772 27.6749 29.7017C27.2524 28.3262 26.6558 27.2905 25.8852 26.5945C25.1146 25.8902 24.2031 25.538 23.1508 25.538C21.5682 25.538 20.317 26.3252 19.3972 27.8995C18.4775 29.4656 18.0135 31.7649 18.0052 34.7976C17.9969 36.8277 18.1999 38.5346 18.6142 39.9183C19.0368 41.3021 19.6334 42.3461 20.404 43.0504C21.1746 43.7464 22.0902 44.0945 23.1508 44.0945ZM46.4085 47.848C45.1905 47.8397 44.0014 47.6284 42.8414 47.2141C41.6814 46.7915 40.6373 46.108 39.7093 45.1634C38.7813 44.2105 38.0438 42.9469 37.4969 41.3725C36.9501 39.7899 36.6808 37.8303 36.6891 35.4936C36.6891 33.3144 36.9211 31.3713 37.3851 29.6644C37.8491 27.9575 38.5161 26.5157 39.3861 25.3391C40.2562 24.1542 41.3043 23.2511 42.5307 22.6296C43.7653 22.0082 45.1449 21.6974 46.6695 21.6974C48.2687 21.6974 49.6856 22.0123 50.9202 22.642C52.1631 23.2718 53.1657 24.1335 53.928 25.2273C54.6904 26.3127 55.1627 27.5391 55.3449 28.9062H50.8084C50.5764 27.9285 50.0999 27.1496 49.379 26.5696C48.6664 25.9813 47.7633 25.6871 46.6695 25.6871C44.9046 25.6871 43.5457 26.4536 42.5928 27.9865C41.6482 29.5194 41.1718 31.6241 41.1635 34.3004H41.3375C41.7435 33.5713 42.2697 32.9457 42.916 32.4237C43.5623 31.9016 44.2914 31.4998 45.1035 31.218C45.9238 30.928 46.7897 30.783 47.7011 30.783C49.1926 30.783 50.5308 31.1393 51.7157 31.8519C52.9089 32.5645 53.8535 33.5464 54.5495 34.7976C55.2455 36.0405 55.5894 37.4657 55.5811 39.0732C55.5894 40.7469 55.2082 42.2508 54.4376 43.5849C53.667 44.9106 52.594 45.9547 51.2185 46.717C49.8431 47.4793 48.2397 47.8563 46.4085 47.848ZM46.3837 44.1193C47.2868 44.1193 48.0947 43.8997 48.8073 43.4606C49.5199 43.0214 50.0833 42.429 50.4976 41.6832C50.9119 40.9375 51.115 40.1006 51.1067 39.1726C51.115 38.2611 50.9161 37.4367 50.5101 36.6992C50.1123 35.9618 49.5613 35.3776 48.857 34.9467C48.1527 34.5159 47.349 34.3004 46.4458 34.3004C45.7746 34.3004 45.149 34.4289 44.569 34.6857C43.989 34.9426 43.4836 35.2989 43.0527 35.7546C42.6218 36.2021 42.2821 36.7241 42.0335 37.3207C41.7932 37.909 41.6689 38.5387 41.6606 39.2099C41.6689 40.0965 41.8761 40.9126 42.2821 41.6584C42.6881 42.4041 43.2474 43.0007 43.96 43.4482C44.6726 43.8956 45.4805 44.1193 46.3837 44.1193Z" fill="#332823"/>
</svg>
