<?xml version="1.0" encoding="UTF-8"?>
<svg id="Layer_2" data-name="Layer 2" xmlns="http://www.w3.org/2000/svg" viewBox="0 0 47.53 48">
  <defs>
    <style>
      .cls-1 {
        fill: #54423c;
      }

      .cls-2 {
        fill: #534038;
      }
    </style>
  </defs>
  <g>
    <path class="cls-1" d="M23.53,47.5c-11.01,0-20.58-7.71-22.94-18.41l.32-.09c1.49-.42,3.75-1.06,7.18-1.55.93-.13,1.72-.22,2.56-.22.94,0,1.82.12,2.7.35.97.26,2.59.7,3.85,2.04.7.74.89,1.34,1.09,1.97.21.67.45,1.42,1.3,2.3.67.69,1.22.91,1.79,1.13.57.23,1.22.48,2.25,1.3,1.33,1.05,1.99,1.57,2.2,2.46.1.45.06.87.02,1.28-.06.63-.13,1.34.41,1.96.14.16.66.69,1.39.69,1.21-.03,1.89-1.41,2.29-2.24.41-.85,1.08-2.23.75-3.88-.26-1.25-.91-2.05-2-3.38-.51-.62-.94-1.06-1.26-1.39-.19-.19-.4-.41-.49-.53.33-.14,1.61-.14,2.56-.14.55,0,.9.02,1.18.04.2.01.37.02.54.02.25,0,.48-.02.76-.07.69-.13,1.85-.34,2.68-1.34.79-.95,1.2-2.47.53-3.38-.38-.5-.94-.64-1.36-.73.3-.23.7-.56.91-1.13.38-1.01,0-2.35-.84-2.92-.21-.15-.44-.23-.65-.29.2-.31.27-.64.32-.86.24-1.12-.45-2.5-1.48-2.95-.24-.1-.46-.15-.65-.17.08-.13.16-.28.2-.46.26-1.18-1.36-2.34-2.34-2.92-1.15-.68-2.48-1.12-3.84-1.26-.44-.05-.85-.07-1.25-.07-1.65,0-3.09.36-5.07.86l-.5.13c-3.57.9-6.25,1.47-6.28,1.48-1.42.3-2.91.46-4.45.46-1.92,0-3.95-.24-6.04-.71C5.54,6.13,13.98.5,23.53.5c12.96,0,23.5,10.54,23.5,23.5s-10.54,23.5-23.5,23.5Z"/>
    <path class="cls-2" d="M23.53,1c12.68,0,23,10.32,23,23s-10.32,23-23,23c-10.61,0-19.87-7.33-22.35-17.55,1.48-.42,3.68-1.02,6.97-1.49.91-.13,1.68-.22,2.49-.22.89,0,1.73.11,2.57.34.98.27,2.46.67,3.62,1.9.62.66.78,1.15.98,1.78.23.72.49,1.54,1.42,2.5.75.77,1.37,1.01,1.97,1.25.57.22,1.15.45,2.13,1.22,1.32,1.04,1.86,1.49,2.02,2.18.08.37.05.74.01,1.12-.06.69-.15,1.55.53,2.33.17.2.82.87,1.77.87h.04s.01,0,.01,0c1.48-.04,2.24-1.59,2.7-2.54.43-.88,1.15-2.36.77-4.18-.28-1.37-1.01-2.25-2.1-3.59-.42-.51-.8-.91-1.09-1.22.46-.02,1.03-.02,1.53-.02.52,0,.86.02,1.13.04.21.01.39.02.57.02.28,0,.54-.03.85-.08.71-.13,2.03-.37,2.98-1.51.91-1.1,1.37-2.89.54-4-.23-.31-.52-.51-.8-.65.16-.2.31-.44.42-.73.46-1.23,0-2.81-1.03-3.5-.08-.06-.17-.11-.25-.15.06-.19.1-.36.13-.48.29-1.36-.52-2.97-1.77-3.52-.05-.02-.11-.04-.16-.06,0,0,0,0,0,0,.31-1.41-1.23-2.66-2.58-3.46-1.21-.72-2.61-1.18-4.04-1.33-.45-.05-.88-.07-1.31-.07-1.72,0-3.17.37-5.19.88l-.5.13c-3.51.88-6.15,1.45-6.26,1.47-1.38.3-2.84.45-4.34.45-1.7,0-3.49-.19-5.34-.57C6.28,6.28,14.39,1,23.53,1M23.53,0C13.36,0,4.68,6.33,1.18,15.26c2.58.63,4.82.86,6.73.86s3.33-.21,4.55-.47c.22-.05,2.85-.61,6.3-1.48,2.23-.56,3.72-.97,5.45-.97.39,0,.78.02,1.2.06.52.06,2.04.25,3.64,1.19.45.26,2.32,1.43,2.11,2.39-.09.42-.56.65-.46.89.1.25.63.06,1.19.3.84.37,1.38,1.53,1.19,2.39-.06.27-.14.67-.47.96-.13.12-.23.16-.23.24.01.2.73.13,1.24.48.65.44.95,1.54.65,2.33-.33.88-1.28,1.05-1.19,1.45.09.44,1.2.2,1.7.87.51.69.13,1.99-.51,2.76-.71.86-1.73,1.04-2.39,1.16-.27.05-.47.07-.67.07-.4,0-.79-.07-1.7-.07,0,0-.01,0-.02,0-1.66,0-2.89,0-3.08.49-.16.43.63.85,1.88,2.39,1.05,1.28,1.67,2.03,1.9,3.16.31,1.5-.31,2.75-.7,3.56-.36.75-.94,1.93-1.81,1.95,0,0-.02,0-.02,0-.55,0-.97-.47-1.01-.52-.69-.8-.04-1.78-.33-3.03-.24-1.06-1.01-1.67-2.37-2.74-2.14-1.69-2.77-1.13-4-2.39-1.54-1.58-.83-2.6-2.39-4.26-1.36-1.44-3.06-1.9-4.09-2.18-1.01-.27-1.95-.37-2.83-.37-.92,0-1.79.11-2.63.23-4.09.59-6.49,1.37-8.01,1.77,2.2,10.99,11.9,19.26,23.53,19.26,13.25,0,24-10.75,24-24S36.78,0,23.53,0h0Z"/>
  </g>
  <path class="cls-2" d="M27.93,14.55c-1.56.27-3.35,1.59-3.13,3.31.09.53.38,1.07.87,1.22.49.14,1.06-.07,1.59-.23,1.61-.56,3.2-1.19,4.82-1.74-1.57.68-3.13,1.38-4.75,1.95-1.28.53-2.51.43-2.76-1.17-.24-1.84,1.72-3.21,3.36-3.35h0Z"/>
  <path class="cls-1" d="M25.09,19.62c-.08.41-.08.84.08,1.21.15.38.5.62.9.67.8.11,1.65.11,2.48.08.83-.01,1.66-.1,2.5-.1.84,0,1.68.08,2.5.24-.83-.07-1.67-.09-2.5-.05-.83.04-1.66.13-2.5.16-.84,0-1.68.01-2.52-.14-.43-.08-.84-.39-.97-.82-.13-.42-.08-.86.04-1.26Z"/>
  <path class="cls-2" d="M25.86,22.02c-1.25-.07-2.08,1.52-1.27,2.46.37.42.98.55,1.56.59,2.96.25,5.98.54,8.93.93-2.39-.11-4.78-.33-7.16-.53-1.02-.18-2.74.03-3.48-.87-.86-1.06.09-2.75,1.42-2.59h0Z"/>
  <path class="cls-2" d="M25.48,25.51c-2.21.43-1.24,3.14.61,3.04,1.69-.22,3.49.21,4.85,1.27-.74-.42-1.52-.76-2.34-.94-1.21-.43-2.68.35-3.77-.48-1.24-.96-1.05-2.72.65-2.89h0Z"/>
  <path class="cls-2" d="M25.53,29.6c-.02.41.01.8.2,1.13.16.34.45.6.79.84-.42-.05-.8-.34-1.01-.72-.19-.39-.2-.88.03-1.24Z"/>
  <path class="cls-2" d="M25.98,38.68c.44.03.89.17,1.25.45.37.28.61.71.71,1.16.08.46.04.93-.12,1.35-.15.43-.43.8-.75,1.1.51-.71.8-1.58.62-2.4-.08-.41-.28-.78-.59-1.07-.31-.28-.7-.48-1.13-.6Z"/>
  <path class="cls-2" d="M16.02,18.82c-.85,2.17-3.15,4.24-1.89,6.69-1.62-2.35.72-4.71,1.89-6.69h0Z"/>
  <path class="cls-2" d="M14.28,16.2c.51,1.51.1,3.33-1.02,4.47.82-1.36,1.17-2.89,1.02-4.47h0Z"/>
  <path class="cls-2" d="M21.04,16.9c.92.37,1.75.88,2.49,1.54-.92-.37-1.75-.88-2.49-1.54h0Z"/>
  <path class="cls-2" d="M19.51,21c.62-.11,1.25-.04,1.86.12.3.1.6.2.86.38.27.16.53.34.77.52-.3-.11-.58-.22-.86-.35-.27-.14-.55-.24-.85-.31-.58-.18-1.17-.27-1.79-.36Z"/>
</svg>