<svg width="69" height="69" viewBox="0 0 69 69" fill="none" xmlns="http://www.w3.org/2000/svg">
<rect x="2" y="2" width="65" height="65" rx="32.5" stroke="#332823" stroke-width="4"/>
<path d="M24.8652 47.35C22.8118 47.35 20.9918 46.8017 19.4052 45.705C17.8185 44.585 16.5702 43.045 15.6602 41.085C14.7735 39.1017 14.3302 36.8383 14.3302 34.295C14.3302 31.7517 14.7735 29.5233 15.6602 27.61C16.5468 25.6733 17.7835 24.1683 19.3702 23.095C20.9802 21.9983 22.8118 21.45 24.8652 21.45C26.9418 21.45 28.7735 21.9983 30.3602 23.095C31.9468 24.1683 33.1835 25.6733 34.0702 27.61C34.9802 29.5233 35.4352 31.7517 35.4352 34.295C35.4352 36.8617 34.9802 39.125 34.0702 41.085C33.1835 43.045 31.9468 44.585 30.3602 45.705C28.7735 46.8017 26.9418 47.35 24.8652 47.35ZM24.8652 43.535C26.1485 43.535 27.2102 43.1267 28.0502 42.31C28.8902 41.4933 29.5202 40.385 29.9402 38.985C30.3835 37.585 30.6052 36.01 30.6052 34.26C30.6052 32.51 30.3952 30.9583 29.9752 29.605C29.5552 28.2517 28.9135 27.19 28.0502 26.42C27.2102 25.65 26.1485 25.265 24.8652 25.265C23.6052 25.265 22.5435 25.6617 21.6802 26.455C20.8402 27.225 20.2102 28.2867 19.7902 29.64C19.3702 30.9933 19.1602 32.5333 19.1602 34.26C19.1602 36.0333 19.3702 37.62 19.7902 39.02C20.2102 40.42 20.8518 41.5283 21.7152 42.345C22.5785 43.1383 23.6285 43.535 24.8652 43.535ZM37.5324 47V43.395C39.9124 41.435 41.8958 39.7433 43.4824 38.32C45.0924 36.8733 46.3758 35.6017 47.3324 34.505C48.2891 33.4083 48.9658 32.405 49.3624 31.495C49.7824 30.5617 49.9924 29.6517 49.9924 28.765C49.9924 27.5983 49.6658 26.6883 49.0124 26.035C48.3591 25.3817 47.4491 25.055 46.2824 25.055C45.0691 25.055 44.0774 25.4167 43.3074 26.14C42.5374 26.84 42.0708 27.8317 41.9074 29.115H37.2874C37.5441 26.7583 38.4891 24.8917 40.1224 23.515C41.7558 22.1383 43.8791 21.45 46.4924 21.45C49.0824 21.45 51.1124 22.1267 52.5824 23.48C54.0758 24.81 54.8224 26.665 54.8224 29.045C54.8224 30.235 54.6124 31.39 54.1924 32.51C53.7958 33.6067 53.1191 34.7617 52.1624 35.975C51.2291 37.165 49.9691 38.4833 48.3824 39.93C46.8191 41.3533 44.8591 42.975 42.5024 44.795L41.4174 43.395H55.2774V47H37.5324Z" fill="#332823"/>
</svg>
