<svg width="36" height="36" viewBox="0 0 36 36" fill="none" xmlns="http://www.w3.org/2000/svg">
<circle cx="18" cy="18" r="17" stroke="white" stroke-width="2"/>
<path d="M12.8168 25.2173C11.8068 25.2131 10.9439 24.9467 10.228 24.4183C9.51207 23.8899 8.96449 23.1207 8.58523 22.1108C8.20597 21.1009 8.01634 19.8842 8.01634 18.4609C8.01634 17.0419 8.20597 15.8295 8.58523 14.8239C8.96875 13.8182 9.51847 13.0511 10.2344 12.5227C10.9545 11.9943 11.8153 11.7301 12.8168 11.7301C13.8182 11.7301 14.6768 11.9964 15.3928 12.5291C16.1087 13.0575 16.6563 13.8246 17.0355 14.8303C17.419 15.8317 17.6108 17.0419 17.6108 18.4609C17.6108 19.8885 17.4212 21.1072 17.0419 22.1172C16.6626 23.1229 16.1151 23.892 15.3991 24.4247C14.6832 24.9531 13.8224 25.2173 12.8168 25.2173ZM12.8168 23.5107C13.7031 23.5107 14.3956 23.0781 14.8942 22.2131C15.397 21.348 15.6484 20.0973 15.6484 18.4609C15.6484 17.3743 15.5334 16.456 15.3033 15.706C15.0774 14.9517 14.7514 14.3807 14.3253 13.9929C13.9034 13.6009 13.4006 13.4048 12.8168 13.4048C11.9347 13.4048 11.2422 13.8395 10.7393 14.7088C10.2365 15.5781 9.98295 16.8288 9.97869 18.4609C9.97869 19.5518 10.0916 20.4744 10.3175 21.2287C10.5476 21.9787 10.8736 22.5476 11.2955 22.9354C11.7173 23.3189 12.2244 23.5107 12.8168 23.5107ZM19.8784 25V23.5682L24.3081 18.9787C24.7811 18.4801 25.171 18.0433 25.4778 17.6683C25.7889 17.2891 26.0211 16.929 26.1745 16.5881C26.3279 16.2472 26.4047 15.8849 26.4047 15.5014C26.4047 15.0668 26.3024 14.6918 26.0978 14.3764C25.8933 14.0568 25.6142 13.8118 25.2605 13.6413C24.9068 13.4666 24.5083 13.3793 24.0652 13.3793C23.5964 13.3793 23.1873 13.4751 22.8379 13.6669C22.4885 13.8587 22.22 14.1293 22.0325 14.4787C21.845 14.8281 21.7512 15.2372 21.7512 15.706H19.8656C19.8656 14.9091 20.0488 14.2124 20.4153 13.6158C20.7818 13.0192 21.2846 12.5568 21.9238 12.2287C22.563 11.8963 23.2896 11.7301 24.1035 11.7301C24.926 11.7301 25.6504 11.8942 26.2768 12.2223C26.9075 12.5462 27.3997 12.9893 27.7534 13.5518C28.1071 14.1101 28.2839 14.7408 28.2839 15.4439C28.2839 15.9297 28.1923 16.4048 28.0091 16.8693C27.8301 17.3338 27.5169 17.8516 27.0694 18.4226C26.622 18.9893 25.9998 19.6776 25.2029 20.4872L22.6014 23.2102V23.3061H28.4949V25H19.8784Z" fill="white"/>
</svg>
