<svg width="69" height="69" viewBox="0 0 69 69" fill="none" xmlns="http://www.w3.org/2000/svg">
<rect x="2" y="2" width="65" height="65" rx="32.5" stroke="#332823" stroke-width="4"/>
<path d="M23.0995 47.9847C21.0529 47.9847 19.2963 47.4669 17.8296 46.4311C16.3713 45.3871 15.2485 43.8832 14.4614 41.9194C13.6825 39.9473 13.2931 37.5734 13.2931 34.7976C13.3013 32.0218 13.6949 29.6603 14.4738 27.7131C15.261 25.7576 16.3837 24.2661 17.8421 23.2386C19.3087 22.2112 21.0612 21.6974 23.0995 21.6974C25.1379 21.6974 26.8904 22.2112 28.357 23.2386C29.8236 24.2661 30.9463 25.7576 31.7252 27.7131C32.5124 29.6686 32.906 32.0301 32.906 34.7976C32.906 37.5817 32.5124 39.9598 31.7252 41.9318C30.9463 43.8956 29.8236 45.3954 28.357 46.4311C26.8986 47.4669 25.1462 47.9847 23.0995 47.9847ZM23.0995 44.0945C24.6904 44.0945 25.9458 43.3114 26.8655 41.7454C27.7935 40.171 28.2575 37.8551 28.2575 34.7976C28.2575 32.7758 28.0463 31.0772 27.6237 29.7017C27.2011 28.3262 26.6045 27.2905 25.8339 26.5945C25.0633 25.8902 24.1518 25.538 23.0995 25.538C21.5169 25.538 20.2657 26.3252 19.346 27.8995C18.4262 29.4656 17.9622 31.7649 17.9539 34.7976C17.9456 36.8277 18.1486 38.5346 18.5629 39.9183C18.9855 41.3021 19.5821 42.3461 20.3527 43.0504C21.1233 43.7464 22.0389 44.0945 23.0995 44.0945ZM46.1708 47.848C44.381 47.848 42.7901 47.5414 41.3981 46.9283C40.0143 46.3151 38.9206 45.4616 38.1168 44.3679C37.3131 43.2741 36.8864 42.0105 36.8366 40.5771H41.5099C41.5514 41.2648 41.7792 41.8655 42.1935 42.3793C42.6078 42.8847 43.1589 43.2783 43.8466 43.56C44.5343 43.8417 45.3049 43.9826 46.1584 43.9826C47.0698 43.9826 47.8777 43.8252 48.582 43.5103C49.2863 43.1871 49.8374 42.7397 50.2351 42.168C50.6328 41.5962 50.8275 40.9375 50.8192 40.1918C50.8275 39.4212 50.6287 38.7417 50.2227 38.1534C49.8166 37.5651 49.2283 37.1052 48.4577 36.7738C47.6954 36.4424 46.7757 36.2766 45.6985 36.2766H43.4489V32.7219H45.6985C46.5851 32.7219 47.3598 32.5687 48.0227 32.2621C48.6939 31.9555 49.2201 31.5246 49.6012 30.9695C49.9824 30.406 50.1688 29.7556 50.1605 29.0181C50.1688 28.2972 50.0072 27.6716 49.6758 27.1413C49.3526 26.6027 48.8928 26.1843 48.2962 25.886C47.7079 25.5877 47.016 25.4386 46.2205 25.4386C45.4416 25.4386 44.7208 25.5794 44.0579 25.8611C43.395 26.1429 42.8606 26.5447 42.4545 27.0668C42.0485 27.5805 41.8331 28.1937 41.8082 28.9062H37.3711C37.4042 27.4811 37.8144 26.2299 38.6016 25.1527C39.397 24.0672 40.4576 23.2221 41.7834 22.6172C43.1091 22.004 44.5965 21.6974 46.2454 21.6974C47.944 21.6974 49.4189 22.0165 50.6701 22.6545C51.9296 23.2842 52.9032 24.1335 53.5909 25.2024C54.2786 26.2713 54.6225 27.4521 54.6225 28.7447C54.6308 30.1781 54.2082 31.3796 53.3548 32.3491C52.5096 33.3185 51.3993 33.9524 50.0238 34.2507V34.4496C51.8136 34.6982 53.1849 35.361 54.1378 36.4382C55.099 37.5071 55.5754 38.837 55.5671 40.4279C55.5671 41.8531 55.1611 43.1291 54.3491 44.256C53.5453 45.3746 52.435 46.253 51.0181 46.891C49.6095 47.529 47.9937 47.848 46.1708 47.848Z" fill="#534038"/>
</svg>
