<svg width="36" height="36" viewBox="0 0 36 36" fill="none" xmlns="http://www.w3.org/2000/svg">
<path d="M18 1C27.4041 1 35 8.49799 35 17.7129C34.9998 26.9276 27.4039 34.4248 18 34.4248C8.59607 34.4248 1.00025 26.9276 1 17.7129C1 8.49799 8.59591 1 18 1Z" stroke="white" stroke-width="2"/>
<path d="M12.8168 25.107C11.8068 25.1027 10.9439 24.8364 10.228 24.308C9.51207 23.7796 8.96449 23.0104 8.58523 22.0004C8.20597 20.9905 8.01634 19.7739 8.01634 18.3506C8.01634 16.9316 8.20597 15.7192 8.58523 14.7135C8.96875 13.7078 9.51847 12.9408 10.2344 12.4124C10.9545 11.884 11.8153 11.6198 12.8168 11.6198C13.8182 11.6198 14.6768 11.8861 15.3928 12.4188C16.1087 12.9472 16.6563 13.7142 17.0355 14.7199C17.419 15.7213 17.6108 16.9316 17.6108 18.3506C17.6108 19.7781 17.4212 20.9969 17.0419 22.0068C16.6626 23.0125 16.1151 23.7817 15.3991 24.3144C14.6832 24.8428 13.8224 25.107 12.8168 25.107ZM12.8168 23.4003C13.7031 23.4003 14.3956 22.9678 14.8942 22.1027C15.397 21.2377 15.6484 19.9869 15.6484 18.3506C15.6484 17.2639 15.5334 16.3456 15.3033 15.5956C15.0774 14.8414 14.7514 14.2703 14.3253 13.8825C13.9034 13.4905 13.4006 13.2945 12.8168 13.2945C11.9347 13.2945 11.2422 13.7291 10.7393 14.5985C10.2365 15.4678 9.98295 16.7185 9.97869 18.3506C9.97869 19.4415 10.0916 20.3641 10.3175 21.1183C10.5476 21.8683 10.8736 22.4372 11.2955 22.825C11.7173 23.2085 12.2244 23.4003 12.8168 23.4003ZM24.4359 25.0686C23.5581 25.0686 22.774 24.9173 22.0836 24.6148C21.3975 24.3122 20.8542 23.8925 20.4537 23.3556C20.0574 22.8144 19.8443 22.1879 19.8145 21.4763H21.8216C21.8471 21.8641 21.9771 22.2007 22.2115 22.4862C22.4501 22.7675 22.7612 22.9848 23.1447 23.1382C23.5282 23.2916 23.9544 23.3683 24.4231 23.3683C24.9387 23.3683 25.3947 23.2789 25.791 23.0999C26.1916 22.9209 26.5048 22.6716 26.7306 22.352C26.9565 22.0281 27.0694 21.6553 27.0694 21.2334C27.0694 20.7945 26.9565 20.4088 26.7306 20.0764C26.5091 19.7398 26.1831 19.4756 25.7527 19.2838C25.3265 19.0921 24.8109 18.9962 24.2058 18.9962H23.1V17.3854H24.2058C24.6916 17.3854 25.1177 17.298 25.4842 17.1233C25.8549 16.9486 26.1447 16.7057 26.3535 16.3946C26.5623 16.0793 26.6667 15.7107 26.6667 15.2888C26.6667 14.884 26.5751 14.5324 26.3919 14.2341C26.2129 13.9316 25.9572 13.695 25.6248 13.5246C25.2967 13.3541 24.9089 13.2689 24.4615 13.2689C24.0353 13.2689 23.6369 13.3477 23.2662 13.5054C22.8997 13.6588 22.6014 13.8804 22.3713 14.1702C22.1412 14.4557 22.0176 14.7987 22.0005 15.1993H20.0893C20.1106 14.4919 20.3194 13.8698 20.7157 13.3328C21.1163 12.7959 21.6447 12.3762 22.301 12.0736C22.9572 11.771 23.6859 11.6198 24.487 11.6198C25.3265 11.6198 26.051 11.7838 26.6603 12.1119C27.274 12.4358 27.747 12.8683 28.0794 13.4095C28.416 13.9507 28.5822 14.5431 28.5779 15.1865C28.5822 15.9195 28.3777 16.5416 27.9643 17.053C27.5552 17.5644 27.0098 17.9074 26.3279 18.0821V18.1844C27.1973 18.3165 27.8706 18.6617 28.3478 19.2199C28.8294 19.7781 29.068 20.4706 29.0637 21.2973C29.068 22.0175 28.8677 22.6631 28.4629 23.2341C28.0623 23.8051 27.5147 24.2547 26.8201 24.5828C26.1255 24.9067 25.3308 25.0686 24.4359 25.0686Z" fill="white"/>
</svg>
